<?xml version="1.0" encoding="UTF-8"?>
<svg version="1.1" xmlns="http://www.w3.org/2000/svg" width="159" height="52">
<path d="M0 0 C52.47 0 104.94 0 159 0 C159 17.16 159 34.32 159 52 C106.53 52 54.06 52 0 52 C0 34.84 0 17.68 0 0 Z " fill="#FBFBFB" transform="translate(0,0)"/>
<path d="M0 0 C1.28068359 -0.00257812 2.56136719 -0.00515625 3.88085938 -0.0078125 C4.88064819 -0.00152832 4.88064819 -0.00152832 5.90063477 0.00488281 C7.9308067 0.01556921 9.96009023 0.00498821 11.99023438 -0.0078125 C13.27220703 -0.00523438 14.55417969 -0.00265625 15.875 0 C17.0498999 0.00225586 18.2247998 0.00451172 19.43530273 0.00683594 C22.43579316 0.25988072 24.07849249 0.51691795 26.50390625 2.265625 C29.93203954 7.01148533 28.8758261 13.52991199 28.87451172 19.11010742 C28.87888578 21.1933769 28.91523181 23.27452676 28.953125 25.35742188 C28.95892578 27.33645508 28.95892578 27.33645508 28.96484375 29.35546875 C28.97306152 30.56066162 28.9812793 31.76585449 28.98974609 33.00756836 C28.41304193 36.87496385 27.21823006 38.50672634 24.50390625 41.265625 C19.95997048 43.53759289 13.67999801 42.49577978 8.69140625 42.515625 C6.76458008 42.5465625 6.76458008 42.5465625 4.79882812 42.578125 C3.56068359 42.58328125 2.32253906 42.5884375 1.046875 42.59375 C-0.65432495 42.60776855 -0.65432495 42.60776855 -2.38989258 42.62207031 C-5.8793866 42.22164107 -7.70514311 41.36506435 -10.49609375 39.265625 C-12.93448401 35.60803961 -12.7411285 33.83513256 -12.7265625 29.48046875 C-12.72610428 28.82357559 -12.72564606 28.16668243 -12.72517395 27.48988342 C-12.72215751 26.1038329 -12.71428934 24.71778558 -12.7019043 23.33178711 C-12.6836305 21.20739778 -12.68139482 19.08344416 -12.68164062 16.95898438 C-12.64370049 6.56083849 -12.64370049 6.56083849 -11.49609375 4.265625 C-10.83609375 4.265625 -10.17609375 4.265625 -9.49609375 4.265625 C-9.49609375 3.605625 -9.49609375 2.945625 -9.49609375 2.265625 C-5.90746612 -0.12679342 -4.26246641 0.00819199 0 0 Z " fill="#9CAFF9" transform="translate(17.49609375,3.734375)"/>
<path d="M0 0 C0.66 0.33 1.32 0.66 2 1 C2 2.32 2 3.64 2 5 C3.32 5 4.64 5 6 5 C6.10845031 7.56364483 6.18749744 10.12266279 6.25 12.6875 C6.30027344 13.7693457 6.30027344 13.7693457 6.3515625 14.87304688 C6.42291404 18.77954343 6.27534719 20.56934334 4.109375 23.95703125 C-0.7619798 28.67502858 -7.39778671 27.2244815 -13.8125 27.25 C-15.73932617 27.2809375 -15.73932617 27.2809375 -17.70507812 27.3125 C-18.94322266 27.31765625 -20.18136719 27.3228125 -21.45703125 27.328125 C-23.1582312 27.34214355 -23.1582312 27.34214355 -24.89379883 27.35644531 C-28.35600337 26.95914761 -30.22295491 26.06901035 -33 24 C-35.09327978 19.81344044 -34.56911651 14.54687762 -34 10 C-32.56471306 7.55599742 -31.36284966 6.65399476 -29 5 C-28.34 7.64 -27.68 10.28 -27 13 C-20.73 13 -14.46 13 -8 13 C-8 9.37 -8 5.74 -8 2 C-7.67 2 -7.34 2 -7 2 C-7 4.64 -7 7.28 -7 10 C-6.34 10 -5.68 10 -5 10 C-5 10.66 -5 11.32 -5 12 C-2.525 12.495 -2.525 12.495 0 13 C0 8.71 0 4.42 0 0 Z " fill="#6732E8" transform="translate(40,19)"/>
<path d="M0 0 C13.86 0 27.72 0 42 0 C42.66 1.98 43.32 3.96 44 6 C43.47672119 5.83773926 42.95344238 5.67547852 42.41430664 5.50830078 C39.3587646 4.86499625 36.49423926 4.87018579 33.37109375 4.8671875 C32.08912109 4.86589844 30.80714844 4.86460937 29.48632812 4.86328125 C28.82189697 4.86537598 28.15746582 4.8674707 27.47290039 4.86962891 C25.44084235 4.87499118 23.40900442 4.86966749 21.37695312 4.86328125 C20.09626953 4.86457031 18.81558594 4.86585938 17.49609375 4.8671875 C16.32232178 4.86831543 15.1485498 4.86944336 13.93920898 4.87060547 C10.93864358 4.86812006 10.93864358 4.86812006 8 6 C8 6.66 8 7.32 8 8 C7.34 8 6.68 8 6 8 C5.97527641 12.50235595 5.95712881 17.00467236 5.94506836 21.50708008 C5.9400404 23.0386626 5.93321716 24.57024033 5.92456055 26.10180664 C5.91242771 28.30356022 5.90675633 30.50525033 5.90234375 32.70703125 C5.89718246 33.39150833 5.89202118 34.07598541 5.88670349 34.78120422 C5.8863464 37.80906242 6.03383381 40.10150142 7 43 C6.01 42.67 5.02 42.34 4 42 C4 41.34 4 40.68 4 40 C2.02 40.495 2.02 40.495 0 41 C0 27.47 0 13.94 0 0 Z " fill="#FBFCFC" transform="translate(0,0)"/>
<path d="M0 0 C2.60444348 -0.05394705 5.20776998 -0.09364469 7.8125 -0.125 C8.55048828 -0.14175781 9.28847656 -0.15851562 10.04882812 -0.17578125 C13.91246426 -0.21074628 15.70903668 -0.19397555 19 2 C19.328125 5.00390625 19.328125 5.00390625 19.25 8.5625 C19.22679687 10.32787109 19.22679687 10.32787109 19.203125 12.12890625 C19 15 19 15 18 16 C15.52642763 16.15349136 13.09995481 16.23159885 10.625 16.25 C9.59632812 16.2809375 9.59632812 16.2809375 8.546875 16.3125 C5.72879085 16.33443062 3.52629438 16.29401336 1.03515625 14.90234375 C-0.53162659 12.02301076 -0.28388297 9.55739327 -0.1875 6.3125 C-0.16042969 5.13300781 -0.13335937 3.95351563 -0.10546875 2.73828125 C-0.07066406 1.83464844 -0.03585937 0.93101563 0 0 Z " fill="#DBE3FA" transform="translate(12,17)"/>
<path d="M0 0 C0.33 -0.33 0.66 -0.66 1 -1 C3.69654854 -1.07319621 6.36691458 -1.09242537 9.0625 -1.0625 C9.82111328 -1.05798828 10.57972656 -1.05347656 11.36132812 -1.04882812 C13.24091871 -1.0370068 15.12046899 -1.01907078 17 -1 C17 -0.34 17 0.32 17 1 C18.65 1 20.3 1 22 1 C22.495 2.485 22.495 2.485 23 4 C17.11488543 7.39525841 11.16002298 7.07655696 4.625 6.5625 C3.88894531 6.51029297 3.15289062 6.45808594 2.39453125 6.40429688 C0.59589371 6.27582277 -1.20212909 6.13879051 -3 6 C-3 9.63 -3 13.26 -3 17 C-3.66 16.34 -4.32 15.68 -5 15 C-5.99 15.33 -6.98 15.66 -8 16 C-8.33 20.29 -8.66 24.58 -9 29 C-9.33 29 -9.66 29 -10 29 C-10.02897435 24.72918086 -10.04678996 20.45838691 -10.0625 16.1875 C-10.07087891 14.97255859 -10.07925781 13.75761719 -10.08789062 12.50585938 C-10.09111328 11.34248047 -10.09433594 10.17910156 -10.09765625 8.98046875 C-10.10289307 7.90692139 -10.10812988 6.83337402 -10.11352539 5.72729492 C-10 3 -10 3 -9 0 C-5.56889804 -0.85777549 -3.38420123 -0.96691464 0 0 Z " fill="#959BF8" transform="translate(15,11)"/>
<path d="M0 0 C6.67503137 -0.4391468 6.67503137 -0.4391468 10 0 C12.5 2.4375 12.5 2.4375 14 5 C14.66 5.33 15.32 5.66 16 6 C15.67 4.02 15.34 2.04 15 0 C16.32 0.33 17.64 0.66 19 1 C19 2.32 19 3.64 19 5 C19.495 4.175 19.99 3.35 20.5 2.5 C23 0 23 0 25.046875 -0.33203125 C27.03425598 -0.31441262 29.01940609 -0.16504949 31 0 C31 4.14906902 30.72713085 7.90988897 30 12 C24.73578214 13.43569578 20.1267211 12.70890703 15 11 C13.15500602 9.12382302 11.6316401 7.07262391 10 5 C9.67 7.31 9.34 9.62 9 12 C8.34 11.67 7.68 11.34 7 11 C7 8.03 7 5.06 7 2 C6.34 1.67 5.68 1.34 5 1 C5 4.63 5 8.26 5 12 C3.68 12 2.36 12 1 12 C0.67 8.04 0.34 4.08 0 0 Z " fill="#F4F4F4" transform="translate(109,6)"/>
<path d="M0 0 C3.375 -0.125 3.375 -0.125 7 0 C9 2 9 2 9 5 C9.66 5 10.32 5 11 5 C11.309375 4.360625 11.61875 3.72125 11.9375 3.0625 C13 1 13 1 14 0 C19.24050633 -0.4556962 19.24050633 -0.4556962 21.875 1.125 C23.52854531 3.88090884 23.39365568 5.85075452 23 9 C21.9375 10.9375 21.9375 10.9375 20 12 C16.69564394 11.76811536 13.97858719 11.48929359 11 10 C11 10.66 11 11.32 11 12 C7.04 12 3.08 12 -1 12 C-0.67 8.04 -0.34 4.08 0 0 Z " fill="#E4E4E4" transform="translate(119,29)"/>
<path d="M0 0 C6.93 0 13.86 0 21 0 C21.33 0.99 21.66 1.98 22 3 C20.68 2.67 19.36 2.34 18 2 C18 5.3 18 8.6 18 12 C16.68 12 15.36 12 14 12 C13.67 11.01 13.34 10.02 13 9 C12.01 10.485 12.01 10.485 11 12 C11.66 12.33 12.32 12.66 13 13 C8.57225348 14.47591551 5.50156059 13.10908015 1 12 C0.67 8.04 0.34 4.08 0 0 Z " fill="#D6D6D6" transform="translate(87,6)"/>
<path d="M0 0 C2.97 0 5.94 0 9 0 C9.33 0.66 9.66 1.32 10 2 C10.33 1.34 10.66 0.68 11 0 C13.31 0 15.62 0 18 0 C17.67 0.99 17.34 1.98 17 3 C15.35 2.34 13.7 1.68 12 1 C14.11070205 4.16605307 15.73539027 5.19587357 19 7 C18.125 10.875 18.125 10.875 17 12 C15.65732587 12.08631874 14.31025678 12.10706473 12.96484375 12.09765625 C12.15595703 12.09443359 11.34707031 12.09121094 10.51367188 12.08789062 C9.66353516 12.07951172 8.81339844 12.07113281 7.9375 12.0625 C7.08349609 12.05798828 6.22949219 12.05347656 5.34960938 12.04882812 C3.23304337 12.03700373 1.11651315 12.01906769 -1 12 C-0.67 8.04 -0.34 4.08 0 0 Z " fill="#F1F1F1" transform="translate(87,29)"/>
<path d="M0 0 C2.1875 2.125 2.1875 2.125 2.625 6.0625 C2.43690312 9.15754859 1.9381034 11.49909489 0.1875 14.125 C0.1875 12.805 0.1875 11.485 0.1875 10.125 C-0.4725 10.125 -1.1325 10.125 -1.8125 10.125 C-2.1425 8.805 -2.4725 7.485 -2.8125 6.125 C-3.1425 10.085 -3.4725 14.045 -3.8125 18.125 C-5.4625 17.795 -7.1125 17.465 -8.8125 17.125 C-8.8125 16.465 -8.8125 15.805 -8.8125 15.125 C-9.4725 15.125 -10.1325 15.125 -10.8125 15.125 C-11.4725 16.115 -12.1325 17.105 -12.8125 18.125 C-13.1425 12.845 -13.4725 7.565 -13.8125 2.125 C-11.8325 1.795 -9.8525 1.465 -7.8125 1.125 C-6.966875 0.7125 -6.12125 0.3 -5.25 -0.125 C-2.8125 -0.875 -2.8125 -0.875 0 0 Z " fill="#8F8DEF" transform="translate(43.8125,13.875)"/>
<path d="M0 0 C0.69738281 0.01804687 1.39476563 0.03609375 2.11328125 0.0546875 C3.82611539 0.10161446 5.53823824 0.17335395 7.25 0.25 C6.92 1.57 6.59 2.89 6.25 4.25 C6.25 3.59 6.25 2.93 6.25 2.25 C4.93 2.25 3.61 2.25 2.25 2.25 C2.25 3.24 2.25 4.23 2.25 5.25 C2.91 5.25 3.57 5.25 4.25 5.25 C3.92 6.24 3.59 7.23 3.25 8.25 C2.59 7.92 1.93 7.59 1.25 7.25 C1.25 8.57 1.25 9.89 1.25 11.25 C3.23 10.92 5.21 10.59 7.25 10.25 C7.25 10.91 7.25 11.57 7.25 12.25 C4.28 12.25 1.31 12.25 -1.75 12.25 C-1.75 8.62 -1.75 4.99 -1.75 1.25 C-2.74 1.745 -2.74 1.745 -3.75 2.25 C-3.75 5.55 -3.75 8.85 -3.75 12.25 C-5.07 12.25 -6.39 12.25 -7.75 12.25 C-8.08 10.6 -8.41 8.95 -8.75 7.25 C-10.07 8.9 -11.39 10.55 -12.75 12.25 C-13.74 9.94 -14.73 7.63 -15.75 5.25 C-15.75 7.56 -15.75 9.87 -15.75 12.25 C-16.41 12.25 -17.07 12.25 -17.75 12.25 C-17.75 8.62 -17.75 4.99 -17.75 1.25 C-16.43 1.25 -15.11 1.25 -13.75 1.25 C-13.09 2.24 -12.43 3.23 -11.75 4.25 C-11.24984375 3.59515625 -10.7496875 2.9403125 -10.234375 2.265625 C-6.89995607 -0.43965828 -4.08935756 -0.20098922 0 0 Z " fill="#565656" transform="translate(78.75,5.75)"/>
<path d="M0 0 C0.66 0.33 1.32 0.66 2 1 C2 2.32 2 3.64 2 5 C3.32 5 4.64 5 6 5 C6.10845031 7.56364483 6.18749744 10.12266279 6.25 12.6875 C6.30027344 13.7693457 6.30027344 13.7693457 6.3515625 14.87304688 C6.42291404 18.77954343 6.27534719 20.56934334 4.109375 23.95703125 C0.61985705 27.336694 -1.55078351 27.11914061 -6.3203125 27.09765625 C-7.57714844 27.09443359 -8.83398438 27.09121094 -10.12890625 27.08789062 C-11.44761719 27.07951172 -12.76632813 27.07113281 -14.125 27.0625 C-15.46484211 27.05748489 -16.804686 27.05292201 -18.14453125 27.04882812 C-21.42973206 27.03701086 -24.71484397 27.02053617 -28 27 C-28 26.67 -28 26.34 -28 26 C-27.19780029 25.97494385 -26.39560059 25.9498877 -25.5690918 25.92407227 C-21.94172926 25.80817957 -18.31463083 25.68542249 -14.6875 25.5625 C-13.42486328 25.52318359 -12.16222656 25.48386719 -10.86132812 25.44335938 C-9.65283203 25.40146484 -8.44433594 25.35957031 -7.19921875 25.31640625 C-6.08377686 25.27974854 -4.96833496 25.24309082 -3.8190918 25.20532227 C-0.92126429 25.11068791 -0.92126429 25.11068791 2 24 C1.43637698 21.95163118 1.43637698 21.95163118 0 20 C-3.05908413 19.18415432 -3.05908413 19.18415432 -6 19 C-5.67 17.68 -5.34 16.36 -5 15 C-3.35 15 -1.7 15 0 15 C0 10.05 0 5.1 0 0 Z " fill="#6C41DA" transform="translate(40,19)"/>
<path d="M0 0 C1.875 1.125 1.875 1.125 3 3 C3.39310741 6.14485925 3.47555213 8.13281671 1.9375 10.9375 C-1.21566824 12.66665678 -3.62508255 11.8590699 -7 11 C-9.15502531 7.76746204 -9.46856135 6.74849077 -9 3 C-6.73529086 -0.64869805 -4.03159541 -0.50394943 0 0 Z " fill="#1D1D1D" transform="translate(139,29)"/>
<path d="M0 0 C0.66 0.66 1.32 1.32 2 2 C7.20482534 3.22418789 12.5520286 3.31799604 17.875 3.5625 C18.75414063 3.60568359 19.63328125 3.64886719 20.5390625 3.69335938 C22.69255797 3.79869339 24.84626064 3.89977649 27 4 C27 3.34 27 2.68 27 2 C29.97 2.495 29.97 2.495 33 3 C33 3.66 33 4.32 33 5 C29.36693942 7.42204038 27.68180977 7.23302891 23.36328125 7.1953125 C21.41518555 7.18564453 21.41518555 7.18564453 19.42773438 7.17578125 C18.05598693 7.1590706 16.68424214 7.14214071 15.3125 7.125 C13.92904282 7.11496674 12.54557873 7.10584149 11.16210938 7.09765625 C7.77456548 7.07404967 4.38736928 7.04112037 1 7 C0.34 5.02 -0.32 3.04 -1 1 C-0.67 0.67 -0.34 0.34 0 0 Z " fill="#6424F2" transform="translate(9,38)"/>
<path d="M0 0 C0.57073242 0.32597168 1.14146484 0.65194336 1.72949219 0.98779297 C4.16607646 2.07403796 5.68281107 2.2331027 8.328125 2.1953125 C9.12734375 2.18886719 9.9265625 2.18242187 10.75 2.17578125 C11.575 2.15902344 12.4 2.14226563 13.25 2.125 C14.51070312 2.11146484 14.51070312 2.11146484 15.796875 2.09765625 C17.86470604 2.07415817 19.93238995 2.03828908 22 2 C22 2.33 22 2.66 22 3 C16.39 3 10.78 3 5 3 C5 6.63 5 10.26 5 14 C4.34 13.34 3.68 12.68 3 12 C2.01 12.33 1.02 12.66 0 13 C-0.33 17.29 -0.66 21.58 -1 26 C-1.33 26 -1.66 26 -2 26 C-2 18.08 -2 10.16 -2 2 C-1.34 2 -0.68 2 0 2 C0 1.34 0 0.68 0 0 Z " fill="#8886DC" transform="translate(7,14)"/>
<path d="M0 0 C2.62506802 -0.02690844 5.24986173 -0.04679404 7.875 -0.0625 C8.62136719 -0.07087891 9.36773437 -0.07925781 10.13671875 -0.08789062 C15.7734375 -0.11328125 15.7734375 -0.11328125 18 1 C17.67 2.65 17.34 4.3 17 6 C12.38 6 7.76 6 3 6 C2.67 7.32 2.34 8.64 2 10 C-0.10706291 6.57602277 -0.08680713 3.96057533 0 0 Z " fill="#EFF3FA" transform="translate(12,17)"/>
<path d="M0 0 C8.68949099 -0.95227298 8.68949099 -0.95227298 12.2578125 1.640625 C14.15274424 3.71200788 15.73188319 5.49123462 17 8 C16.67 9.32 16.34 10.64 16 12 C14.02 9.69 12.04 7.38 10 5 C9.67 7.31 9.34 9.62 9 12 C8.34 11.67 7.68 11.34 7 11 C7 8.03 7 5.06 7 2 C6.34 1.67 5.68 1.34 5 1 C5 4.63 5 8.26 5 12 C3.68 12 2.36 12 1 12 C0.67 8.04 0.34 4.08 0 0 Z " fill="#636363" transform="translate(109,6)"/>
<path d="M0 0 C0.33 0 0.66 0 1 0 C1 2.64 1 5.28 1 8 C1.66 8 2.32 8 3 8 C3 8.66 3 9.32 3 10 C5.475 10.495 5.475 10.495 8 11 C8 7.37 8 3.74 8 0 C8.33 0 8.66 0 9 0 C9 4.29 9 8.58 9 13 C5 14 5 14 2 14 C2 13.34 2 12.68 2 12 C1.51015625 12.32742187 1.0203125 12.65484375 0.515625 12.9921875 C-3.04269563 14.41772589 -6.48203011 14.21154348 -10.25 14.125 C-10.99507812 14.11597656 -11.74015625 14.10695313 -12.5078125 14.09765625 C-14.33868059 14.07418358 -16.16938238 14.03831525 -18 14 C-18.66 12.68 -19.32 11.36 -20 10 C-19.01 10.33 -18.02 10.66 -17 11 C-15.66474283 11.07973476 -14.32587917 11.10771338 -12.98828125 11.09765625 C-12.23095703 11.09443359 -11.47363281 11.09121094 -10.69335938 11.08789062 C-9.90767578 11.07951172 -9.12199219 11.07113281 -8.3125 11.0625 C-7.51521484 11.05798828 -6.71792969 11.05347656 -5.89648438 11.04882812 C-3.93095743 11.0370585 -1.96546915 11.01912348 0 11 C0 7.37 0 3.74 0 0 Z " fill="#5647BB" transform="translate(32,21)"/>
<path d="M0 0 C1.26908188 2.35686635 2.18019188 4.56309961 3 7.125 C3.79613329 10.08650724 3.79613329 10.08650724 6 12 C2.535 13.485 2.535 13.485 -1 15 C-1 16.65 -1 18.3 -1 20 C-3.37214497 18.1752731 -3.95782822 17.26670803 -4.43359375 14.2578125 C-4.44423705 5.72188521 -4.44423705 5.72188521 -2 1.75 C-1.01 0.88375 -1.01 0.88375 0 0 Z " fill="#6941E5" transform="translate(10,24)"/>
<path d="M0 0 C4.95 0 9.9 0 15 0 C14.67 1.32 14.34 2.64 14 4 C14 3.34 14 2.68 14 2 C12.68 2 11.36 2 10 2 C10 2.99 10 3.98 10 5 C10.66 5 11.32 5 12 5 C11.67 5.99 11.34 6.98 11 8 C10.34 7.67 9.68 7.34 9 7 C9 8.32 9 9.64 9 11 C10.98 10.67 12.96 10.34 15 10 C15 10.66 15 11.32 15 12 C12.03 12 9.06 12 6 12 C6 8.37 6 4.74 6 1 C5.01 1.33 4.02 1.66 3 2 C2.01 1.34 1.02 0.68 0 0 Z " fill="#A4A4A4" transform="translate(71,6)"/>
<path d="M0 0 C0 4.95 0 9.9 0 15 C-1.32 14.67 -2.64 14.34 -4 14 C-4 13.34 -4 12.68 -4 12 C-4.66 12 -5.32 12 -6 12 C-6.4386423 6.73629243 -6.4386423 6.73629243 -6 4 C-2.1 0 -2.1 0 0 0 Z " fill="#DEE5F7" transform="translate(39,17)"/>
<path d="M0 0 C0 3.63 0 7.26 0 11 C-2.64 10.67 -5.28 10.34 -8 10 C-8 8.68 -8 7.36 -8 6 C-7.34 6 -6.68 6 -6 6 C-5.67 5.34 -5.34 4.68 -5 4 C-5.66 4 -6.32 4 -7 4 C-7 3.01 -7 2.02 -7 1 C-2.25 0 -2.25 0 0 0 Z " fill="#F2F2F2" transform="translate(88,7)"/>
<path d="M0 0 C2.64 0 5.28 0 8 0 C7.67 0.66 7.34 1.32 7 2 C5.68 1.67 4.36 1.34 3 1 C3 2.32 3 3.64 3 5 C3.66 5 4.32 5 5 5 C5.33 4.34 5.66 3.68 6 3 C6 4.65 6 6.3 6 8 C5.34 7.67 4.68 7.34 4 7 C3.67 8.32 3.34 9.64 3 11 C5.86724686 10.42655063 6.8614515 10.1385485 9 8 C9 9.32 9 10.64 9 12 C5.7 12 2.4 12 -1 12 C-0.67 8.04 -0.34 4.08 0 0 Z " fill="#555555" transform="translate(87,29)"/>
<path d="M0 0 C2.475 0.495 2.475 0.495 5 1 C7.72502965 0.62277985 7.72502965 0.62277985 10 0 C11.18224668 3.54674003 10.89329634 5.97522995 10.5625 9.6875 C10.46066406 10.86699219 10.35882813 12.04648437 10.25390625 13.26171875 C10.17011719 14.16535156 10.08632813 15.06898437 10 16 C9.67 16 9.34 16 9 16 C8.67 11.38 8.34 6.76 8 2 C7.01 2.99 6.02 3.98 5 5 C4.01 5 3.02 5 2 5 C2 8.63 2 12.26 2 16 C1.67 16 1.34 16 1 16 C0.67 10.72 0.34 5.44 0 0 Z " fill="#8F8FD2" transform="translate(30,16)"/>
<path d="M0 0 C3.3 0 6.6 0 10 0 C10.33 0.99 10.66 1.98 11 3 C9.68 2.67 8.36 2.34 7 2 C7 5.3 7 8.6 7 12 C5.68 11.67 4.36 11.34 3 11 C3.33 8.03 3.66 5.06 4 2 C2.68 2.33 1.36 2.66 0 3 C0 2.01 0 1.02 0 0 Z " fill="#505050" transform="translate(98,6)"/>
<path d="M0 0 C0.99 0.495 0.99 0.495 2 1 C2 2.32 2 3.64 2 5 C3.32 5 4.64 5 6 5 C6 10.28 6 15.56 6 21 C5.67 19.68 5.34 18.36 5 17 C4.34 17 3.68 17 3 17 C2.01 11.39 1.02 5.78 0 0 Z " fill="#735BE6" transform="translate(40,19)"/>
<path d="M0 0 C1.32 0 2.64 0 4 0 C5.35439668 2.70879335 5.06501451 5.00933268 5 8 C3.02 8.99 3.02 8.99 1 10 C-1 8 -1 8 -1.1875 4.4375 C-1 1 -1 1 0 0 Z " fill="#F6F6F6" transform="translate(134,30)"/>
<path d="M0 0 C2.31 0 4.62 0 7 0 C6.67 0.99 6.34 1.98 6 3 C3.525 2.01 3.525 2.01 1 1 C3.11070205 4.16605307 4.73539027 5.19587357 8 7 C7.125 10.875 7.125 10.875 6 12 C3.66702567 12.04092937 1.33294775 12.04241723 -1 12 C-0.67 11.01 -0.34 10.02 0 9 C1.65 9.33 3.3 9.66 5 10 C5 9.34 5 8.68 5 8 C3.02 7.01 1.04 6.02 -1 5 C-0.67 3.35 -0.34 1.7 0 0 Z " fill="#363636" transform="translate(98,29)"/>
<path d="M0 0 C3.3 0 6.6 0 10 0 C9.67 0.66 9.34 1.32 9 2 C8.01 1.67 7.02 1.34 6 1 C6.33 4.63 6.66 8.26 7 12 C5.35 12 3.7 12 2 12 C2.33 8.37 2.66 4.74 3 1 C2.01 1.33 1.02 1.66 0 2 C0 1.34 0 0.68 0 0 Z " fill="#3C3C3C" transform="translate(107,29)"/>
<path d="M0 0 C4.05676492 -0.04954711 8.11341194 -0.085789 12.17041016 -0.10986328 C13.54967315 -0.11990253 14.92891496 -0.13353677 16.30810547 -0.15087891 C18.2938514 -0.17521754 20.2797545 -0.18543255 22.265625 -0.1953125 C24.05661621 -0.21102295 24.05661621 -0.21102295 25.88378906 -0.22705078 C28.85798164 -0.01034762 30.50318379 0.43813878 33 2 C32.67 2.66 32.34 3.32 32 4 C28.7 3.67 25.4 3.34 22 3 C22 2.67 22 2.34 22 2 C14.74 1.67 7.48 1.34 0 1 C0 0.67 0 0.34 0 0 Z " fill="#C4D2F9" transform="translate(11,4)"/>
<path d="M0 0 C0.66 1.32 1.32 2.64 2 4 C2.66 4 3.32 4 4 4 C4.33 2.68 4.66 1.36 5 0 C5.66 0 6.32 0 7 0 C6.979375 1.093125 6.95875 2.18625 6.9375 3.3125 C6.81455548 6.94384191 6.81455548 6.94384191 8 10 C6.0625 9.625 6.0625 9.625 4 9 C3.67 8.34 3.34 7.68 3 7 C2.67 7.99 2.34 8.98 2 10 C1.34 10 0.68 10 0 10 C0 6.7 0 3.4 0 0 Z " fill="#161616" transform="translate(120,30)"/>
<path d="M0 0 C0 0.66 0 1.32 0 2 C-3.63306058 4.42204038 -5.31819023 4.23302891 -9.63671875 4.1953125 C-11.58481445 4.18564453 -11.58481445 4.18564453 -13.57226562 4.17578125 C-14.94401307 4.1590706 -16.31575786 4.14214071 -17.6875 4.125 C-19.07095718 4.11496674 -20.45442127 4.10584149 -21.83789062 4.09765625 C-25.22543452 4.07404967 -28.61263072 4.04112037 -32 4 C-32.33 3.34 -32.66 2.68 -33 2 C-32.16750732 2.01047363 -31.33501465 2.02094727 -30.47729492 2.03173828 C-27.38550844 2.06584442 -24.29381792 2.09091076 -21.2019043 2.10986328 C-19.20680382 2.12485495 -17.21179054 2.15026731 -15.21679688 2.17578125 C-13.96318359 2.18222656 -12.70957031 2.18867187 -11.41796875 2.1953125 C-10.26063232 2.20578613 -9.1032959 2.21625977 -7.91088867 2.22705078 C-4.65178071 1.97283872 -3.12524804 0 0 0 Z " fill="#5923DB" transform="translate(42,41)"/>
<path d="M0 0 C4.93253156 1.23313289 6.16859961 2.87424515 9 7 C8.67 8.32 8.34 9.64 8 11 C6.02 8.69 4.04 6.38 2 4 C1.67 6.31 1.34 8.62 1 11 C0.34 10.67 -0.32 10.34 -1 10 C-0.67 6.7 -0.34 3.4 0 0 Z " fill="#2A2A2A" transform="translate(117,7)"/>
<path d="M0 0 C1.32 0 2.64 0 4 0 C5.32 2.97 6.64 5.94 8 9 C7.34 9.66 6.68 10.32 6 11 C4.515 8.03 4.515 8.03 3 5 C3 7.31 3 9.62 3 12 C2.01 11.67 1.02 11.34 0 11 C0 7.37 0 3.74 0 0 Z " fill="#333333" transform="translate(58,29)"/>
<path d="M0 0 C0.625 1.8125 0.625 1.8125 1 4 C0.01 5.485 0.01 5.485 -1 7 C-1.66 7 -2.32 7 -3 7 C-3.33 11.29 -3.66 15.58 -4 20 C-4.33 20 -4.66 20 -5 20 C-5 14.72 -5 9.44 -5 4 C-4.34 4 -3.68 4 -3 4 C-3 3.34 -3 2.68 -3 2 C-2.01 2 -1.02 2 0 2 C0 1.34 0 0.68 0 0 Z " fill="#7C6BD7" transform="translate(10,20)"/>
<path d="M0 0 C1.32 0 2.64 0 4 0 C4.99 2.97 5.98 5.94 7 9 C6.34 9.66 5.68 10.32 5 11 C4.01 8.69 3.02 6.38 2 4 C2 6.31 2 8.62 2 11 C1.34 11 0.68 11 0 11 C0 7.37 0 3.74 0 0 Z " fill="#303030" transform="translate(61,7)"/>
<path d="M0 0 C-0.66 1.32 -1.32 2.64 -2 4 C-2.66 3.67 -3.32 3.34 -4 3 C-4.33 3.66 -4.66 4.32 -5 5 C-5 4.34 -5 3.68 -5 3 C-5.99 3.495 -5.99 3.495 -7 4 C-8.87379605 4.07033769 -10.75001102 4.0843022 -12.625 4.0625 C-13.62789062 4.05347656 -14.63078125 4.04445313 -15.6640625 4.03515625 C-16.43492188 4.02355469 -17.20578125 4.01195312 -18 4 C-18 3.34 -18 2.68 -18 2 C-17.01257813 1.93941406 -16.02515625 1.87882812 -15.0078125 1.81640625 C-13.72648437 1.73261719 -12.44515625 1.64882813 -11.125 1.5625 C-9.84882813 1.48128906 -8.57265625 1.40007813 -7.2578125 1.31640625 C-4.53573738 1.05203205 -2.62506009 0 0 0 Z " fill="#5C37D6" transform="translate(34,33)"/>
<path d="M0 0 C0.99 0.33 1.98 0.66 3 1 C5.56634861 1.22718496 8.11678107 1.41608184 10.6875 1.5625 C11.7403418 1.62727539 11.7403418 1.62727539 12.81445312 1.69335938 C14.54275206 1.7991736 16.2713511 1.90006581 18 2 C18 2.66 18 3.32 18 4 C12.72 4 7.44 4 2 4 C1.34 2.68 0.68 1.36 0 0 Z " fill="#3B319E" transform="translate(12,31)"/>
<path d="M0 0 C2.31 0 4.62 0 7 0 C6.34 1.98 5.68 3.96 5 6 C4.01 5.67 3.02 5.34 2 5 C1.67 6.98 1.34 8.96 1 11 C0.67 11 0.34 11 0 11 C0 7.37 0 3.74 0 0 Z " fill="#7D7D7D" transform="translate(119,29)"/>
<path d="M0 0 C0.99 0 1.98 0 3 0 C3 3.63 3 7.26 3 11 C2.01 11 1.02 11 0 11 C-0.19406478 9.35492782 -0.38007935 7.70890406 -0.5625 6.0625 C-0.66691406 5.14597656 -0.77132812 4.22945312 -0.87890625 3.28515625 C-0.91886719 2.53105469 -0.95882812 1.77695312 -1 1 C-0.67 0.67 -0.34 0.34 0 0 Z " fill="#252525" transform="translate(69,29)"/>
<path d="M0 0 C0.66 0 1.32 0 2 0 C2 1.65 2 3.3 2 5 C2.99 4.67 3.98 4.34 5 4 C4.67 4.99 4.34 5.98 4 7 C3.34 6.67 2.68 6.34 2 6 C2 7.32 2 8.64 2 10 C3.98 9.67 5.96 9.34 8 9 C8 9.66 8 10.32 8 11 C5.03 11 2.06 11 -1 11 C-0.67 7.37 -0.34 3.74 0 0 Z " fill="#151515" transform="translate(78,7)"/>
<path d="M0 0 C0.66 0 1.32 0 2 0 C2 1.65 2 3.3 2 5 C2.99 4.67 3.98 4.34 5 4 C5 4.66 5 5.32 5 6 C4.01 6 3.02 6 2 6 C2 7.32 2 8.64 2 10 C3.98 9.67 5.96 9.34 8 9 C8 9.66 8 10.32 8 11 C5.03 11 2.06 11 -1 11 C-0.67 7.37 -0.34 3.74 0 0 Z " fill="#131313" transform="translate(89,7)"/>
<path d="M0 0 C0 0.66 0 1.32 0 2 C-0.78375 2.28875 -1.5675 2.5775 -2.375 2.875 C-5.09671632 3.84912254 -5.09671632 3.84912254 -7 6 C-7.99 6 -8.98 6 -10 6 C-10.33 6.99 -10.66 7.98 -11 9 C-10.67 7.02 -10.34 5.04 -10 3 C-9.34 3 -8.68 3 -8 3 C-8 2.34 -8 1.68 -8 1 C-5.29120665 -0.35439668 -2.99066732 -0.06501451 0 0 Z " fill="#A9B8EF" transform="translate(16,5)"/>
<path d="M0 0 C3.17218843 3.62535821 4.42902597 7.51150278 6 12 C4.35 12 2.7 12 1 12 C0.7834375 10.63875 0.7834375 10.63875 0.5625 9.25 C0.08075461 6.14616764 0.08075461 6.14616764 -0.625 3.75 C-1 2 -1 2 0 0 Z " fill="#303030" transform="translate(79,29)"/>
<path d="M0 0 C0.66 0 1.32 0 2 0 C2.042721 1.66611905 2.04063832 3.33382885 2 5 C1 6 1 6 -2.37890625 6.09765625 C-3.77347077 6.09098369 -5.16801743 6.07902532 -6.5625 6.0625 C-7.27341797 6.05798828 -7.98433594 6.05347656 -8.71679688 6.04882812 C-10.47790013 6.03700864 -12.23896036 6.01907263 -14 6 C-14 5.67 -14 5.34 -14 5 C-13.32453125 4.97421875 -12.6490625 4.9484375 -11.953125 4.921875 C-6.27864207 4.68674888 -6.27864207 4.68674888 -1.5 1.9375 C-1.005 1.298125 -0.51 0.65875 0 0 Z " fill="#B2BDEC" transform="translate(29,27)"/>
<path d="M0 0 C1.32 0.33 2.64 0.66 4 1 C4.88935377 4.303314 5.46274105 7.62294375 6 11 C4.68 11.33 3.36 11.66 2 12 C0.40861915 7.82262526 -0.21278058 4.46839215 0 0 Z " fill="#BFBFBF" transform="translate(124,6)"/>
<path d="M0 0 C0.66 0 1.32 0 2 0 C2.33 1.65 2.66 3.3 3 5 C2.01 5.33 1.02 5.66 0 6 C0.33 6.66 0.66 7.32 1 8 C-2.3 8 -5.6 8 -9 8 C-9 7.67 -9 7.34 -9 7 C-6.69 7 -4.38 7 -2 7 C-1.34 4.69 -0.68 2.38 0 0 Z " fill="#989898" transform="translate(77,33)"/>
<path d="M0 0 C1.20628008 2.33214148 2.1654738 4.49642139 3 7 C2.01 7 1.02 7 0 7 C-0.99 7.66 -1.98 8.32 -3 9 C-3.75 7.3125 -3.75 7.3125 -4 5 C-2.0625 2.25 -2.0625 2.25 0 0 Z " fill="#6C57DA" transform="translate(10,24)"/>
<path d="M0 0 C0.66 0 1.32 0 2 0 C2 3.3 2 6.6 2 10 C1.01 10 0.02 10 -1 10 C-1.02689216 8.52093108 -1.04634621 7.04172517 -1.0625 5.5625 C-1.07410156 4.73878906 -1.08570312 3.91507813 -1.09765625 3.06640625 C-1 1 -1 1 0 0 Z " fill="#F3F3F3" transform="translate(75,7)"/>
<path d="M0 0 C0.66 0 1.32 0 2 0 C1.67 3.3 1.34 6.6 1 10 C0.01 9.67 -0.98 9.34 -2 9 C-2.125 5.625 -2.125 5.625 -2 2 C-1.34 1.34 -0.68 0.68 0 0 Z " fill="#282828" transform="translate(131,7)"/>
<path d="M0 0 C2.61047801 1.305239 2.68066423 2.35826574 3.625 5.0625 C3.88539062 5.79597656 4.14578125 6.52945312 4.4140625 7.28515625 C4.60742188 7.85105469 4.80078125 8.41695312 5 9 C3.68 9 2.36 9 1 9 C-0.4783226 6.04335481 -0.06032783 3.25770263 0 0 Z " fill="#CFD7F8" transform="translate(12,23)"/>
<path d="M0 0 C0.33 0 0.66 0 1 0 C1 3.3 1 6.6 1 10 C-1.64 10.66 -4.28 11.32 -7 12 C-6.67 10.68 -6.34 9.36 -6 8 C-4.35 8 -2.7 8 -1 8 C-0.67 5.36 -0.34 2.72 0 0 Z " fill="#6646D8" transform="translate(41,26)"/>
<path d="M0 0 C0.99 0.99 1.98 1.98 3 3 C1.25 4.5625 1.25 4.5625 -1 6 C-3.1875 5.875 -3.1875 5.875 -5 5 C-5.33 4.01 -5.66 3.02 -6 2 C-3.525 2.495 -3.525 2.495 -1 3 C-0.67 2.01 -0.34 1.02 0 0 Z " fill="#E7E7E7" transform="translate(105,28)"/>
<path d="M0 0 C-0.33 0.99 -0.66 1.98 -1 3 C-5.75 2.125 -5.75 2.125 -8 1 C-8 0.34 -8 -0.32 -8 -1 C-4.37673261 -2.2077558 -3.35853631 -1.54311128 0 0 Z " fill="#E4E4E4" transform="translate(104,37)"/>
<path d="M0 0 C0.99 0.495 0.99 0.495 2 1 C2 1.66 2 2.32 2 3 C2.66 3 3.32 3 4 3 C4.33 2.34 4.66 1.68 5 1 C5 2.65 5 4.3 5 6 C4.34 5.67 3.68 5.34 3 5 C2.67 6.32 2.34 7.64 2 9 C1.34 9 0.68 9 0 9 C0 6.03 0 3.06 0 0 Z " fill="#242424" transform="translate(88,31)"/>
<path d="M0 0 C0.268125 0.598125 0.53625 1.19625 0.8125 1.8125 C1.8694745 4.05510787 1.8694745 4.05510787 3.6875 5.5 C4.120625 5.995 4.55375 6.49 5 7 C4.6875 9.1875 4.6875 9.1875 4 11 C3.34 10.67 2.68 10.34 2 10 C2 9.34 2 8.68 2 8 C1.34 8 0.68 8 0 8 C0 5.36 0 2.72 0 0 Z " fill="#C8CFF5" transform="translate(33,21)"/>
<path d="M0 0 C0 2.64 0 5.28 0 8 C-0.33 7.34 -0.66 6.68 -1 6 C-2.32 6.33 -3.64 6.66 -5 7 C-4.53479806 4.30182875 -3.4249099 0 0 0 Z " fill="#E9EFFE" transform="translate(39,17)"/>
<path d="M0 0 C0.33 0 0.66 0 1 0 C1 2.64 1 5.28 1 8 C1.66 8 2.32 8 3 8 C3 8.66 3 9.32 3 10 C3.66 10 4.32 10 5 10 C5 10.66 5 11.32 5 12 C3.35 11.67 1.7 11.34 0 11 C0 7.37 0 3.74 0 0 Z " fill="#444492" transform="translate(32,21)"/>
<path d="M0 0 C0.33 0 0.66 0 1 0 C1 3.63 1 7.26 1 11 C0.67 9.68 0.34 8.36 0 7 C-0.66 7 -1.32 7 -2 7 C-2.33 5.35 -2.66 3.7 -3 2 C-2.34 2 -1.68 2 -1 2 C-0.67 1.34 -0.34 0.68 0 0 Z " fill="#8577F5" transform="translate(44,17)"/>
<path d="M0 0 C1.32 0.33 2.64 0.66 4 1 C3.67 2.32 3.34 3.64 3 5 C0.625 5.625 0.625 5.625 -2 6 C-2.66 5.34 -3.32 4.68 -4 4 C-2.68 4 -1.36 4 0 4 C0 2.68 0 1.36 0 0 Z " fill="#434343" transform="translate(136,13)"/>
<path d="M0 0 C2.15377564 2.62198774 3.40072174 4.64404172 4 8 C3.01 8.33 2.02 8.66 1 9 C0 8 0 8 -0.09765625 6.15234375 C-0.06510417 4.1015625 -0.03255208 2.05078125 0 0 Z " fill="#E9E9E9" transform="translate(60,32)"/>
<path d="M0 0 C0.33 0.66 0.66 1.32 1 2 C1.66 2 2.32 2 3 2 C1.125 5.875 1.125 5.875 0 7 C-1.66617115 7.04063832 -3.33388095 7.042721 -5 7 C-4 5 -4 5 -1 4 C-0.26676204 1.98491642 -0.26676204 1.98491642 0 0 Z " fill="#454545" transform="translate(139,34)"/>
<path d="M0 0 C2.31 0 4.62 0 7 0 C6.67 0.99 6.34 1.98 6 3 C3.525 2.01 3.525 2.01 1 1 C1.33 2.32 1.66 3.64 2 5 C1.01 5 0.02 5 -1 5 C-0.67 3.35 -0.34 1.7 0 0 Z " fill="#434343" transform="translate(98,29)"/>
<path d="M0 0 C0.4125 0.45375 0.825 0.9075 1.25 1.375 C3.19019186 3.32917823 3.19019186 3.32917823 7 5 C3.37 5 -0.26 5 -4 5 C-2.68 4.67 -1.36 4.34 0 4 C0 2.68 0 1.36 0 0 Z " fill="#C0C0C0" transform="translate(122,36)"/>
<path d="M0 0 C0.66 0 1.32 0 2 0 C2 2.31 2 4.62 2 7 C0.68 7 -0.64 7 -2 7 C-2 5.68 -2 4.36 -2 3 C-1.34 3 -0.68 3 0 3 C0 2.01 0 1.02 0 0 Z " fill="#DADADA" transform="translate(82,10)"/>
<path d="M0 0 C0.66 0 1.32 0 2 0 C3.125 5.75 3.125 5.75 2 8 C1.34 8 0.68 8 0 8 C0 5.36 0 2.72 0 0 Z " fill="#8985DE" transform="translate(5,16)"/>
<path d="M0 0 C-0.33 1.98 -0.66 3.96 -1 6 C-1.66 5.34 -2.32 4.68 -3 4 C-3.99 4 -4.98 4 -6 4 C-6 3.34 -6 2.68 -6 2 C-3 0 -3 0 0 0 Z " fill="#959EFA" transform="translate(44,10)"/>
<path d="M0 0 C-0.33 0.66 -0.66 1.32 -1 2 C-4.3 1.67 -7.6 1.34 -11 1 C-6.46780033 -1.26609984 -4.82227075 -0.92735976 0 0 Z " fill="#B2C0F5" transform="translate(44,6)"/>
<path d="M0 0 C2.64 0 5.28 0 8 0 C8 0.99 8 1.98 8 3 C7.01 3.495 7.01 3.495 6 4 C6 3.34 6 2.68 6 2 C4.35 2 2.7 2 1 2 C0.67 1.34 0.34 0.68 0 0 Z " fill="#989898" transform="translate(132,6)"/>
</svg>
